<svg xmlns="http://www.w3.org/2000/svg" width="236" height="78" viewBox="0 0 236 78"><g transform="translate(0.5 -0.6)"><defs><mask id="lk-cut" maskUnits="userSpaceOnUse" x="0" y="0" width="64" height="64">
      <rect width="64" height="64" fill="#fff"/>
      <path d="M6 41 H29 L57 13" stroke="#000" stroke-width="11" fill="none" stroke-linejoin="round" stroke-linecap="round"/></mask>
    <linearGradient id="lk-call" x1="12" y1="54" x2="50" y2="14" gradientUnits="userSpaceOnUse">
      <stop offset="0" stop-color="#4a2bd0"/><stop offset="0.5" stop-color="#836ef9"/><stop offset="1" stop-color="#c3b6ff"/></linearGradient>
    <linearGradient id="lk-put" x1="10" y1="56" x2="52" y2="34" gradientUnits="userSpaceOnUse">
      <stop offset="0" stop-color="#a0055d"/><stop offset="1" stop-color="#6a2bd9"/></linearGradient>
    <linearGradient id="lk-ray" x1="29" y1="41" x2="57" y2="13" gradientUnits="userSpaceOnUse">
      <stop offset="0" stop-color="#200052"/><stop offset="1" stop-color="#00a67a"/></linearGradient>
  </defs>
  <g mask="url(#lk-cut)">
    <circle cx="31" cy="34" r="21" fill="url(#lk-call)"/>
    <path d="M11.201 41 H50.799 A21 21 0 0 1 11.201 41Z" fill="url(#lk-put)"/>
  </g>
  <path d="M6 41 H29 L57 13" stroke="url(#lk-ray)" stroke-width="5.5" fill="none" stroke-linecap="round" stroke-linejoin="round"/>
  <circle cx="29" cy="41" r="4.6" fill="#ff7a3d"/></g><path d="M91.30 47.70L91.30 47.70Q87.60 47.70 84.65 46.20Q81.70 44.70 80 41.85Q78.30 39 78.30 35L78.30 35L78.30 34.20Q78.30 30.20 80 27.35Q81.70 24.50 84.65 23Q87.60 21.50 91.30 21.50L91.30 21.50Q95 21.50 97.95 23Q100.90 24.50 102.60 27.35Q104.30 30.20 104.30 34.20L104.30 34.20L104.30 35Q104.30 39 102.60 41.85Q100.90 44.70 97.95 46.20Q95 47.70 91.30 47.70ZM91.30 42.10L91.30 42.10Q94.20 42.10 96.10 40.23Q98 38.35 98 34.85L98 34.85L98 34.35Q98 30.85 96.13 28.97Q94.25 27.10 91.30 27.10L91.30 27.10Q88.40 27.10 86.50 28.97Q84.60 30.85 84.60 34.35L84.60 34.35L84.60 34.85Q84.60 38.35 86.50 40.23Q88.40 42.10 91.30 42.10ZM115.15 57L108.85 57L108.85 22.20L115.05 22.20L115.05 25.20L115.95 25.20Q116.80 23.75 118.60 22.63Q120.40 21.50 123.75 21.50L123.75 21.50Q126.75 21.50 129.30 22.97Q131.85 24.45 133.40 27.30Q134.95 30.15 134.95 34.20L134.95 34.20L134.95 35Q134.95 39.05 133.40 41.90Q131.85 44.75 129.30 46.23Q126.75 47.70 123.75 47.70L123.75 47.70Q121.50 47.70 119.97 47.17Q118.45 46.65 117.52 45.83Q116.60 45 116.05 44.15L116.05 44.15L115.15 44.15L115.15 57ZM121.85 42.20L121.85 42.20Q124.80 42.20 126.72 40.33Q128.65 38.45 128.65 34.85L128.65 34.85L128.65 34.35Q128.65 30.75 126.70 28.88Q124.75 27 121.85 27L121.85 27Q118.95 27 117 28.88Q115.05 30.75 115.05 34.35L115.05 34.35L115.05 34.85Q115.05 38.45 117 40.33Q118.95 42.20 121.85 42.20ZM155.20 47L148.20 47Q145.75 47 144.22 45.48Q142.70 43.95 142.70 41.40L142.70 41.40L142.70 27.40L136.50 27.40L136.50 22.20L142.70 22.20L142.70 14.50L149 14.50L149 22.20L155.80 22.20L155.80 27.40L149 27.40L149 40.30Q149 41.80 150.40 41.80L150.40 41.80L155.20 41.80L155.20 47ZM167.95 47.70L167.95 47.70Q165.30 47.70 163.20 46.77Q161.10 45.85 159.88 44.08Q158.65 42.30 158.65 39.75L158.65 39.75Q158.65 37.20 159.88 35.48Q161.10 33.75 163.28 32.88Q165.45 32 168.25 32L168.25 32L175.05 32L175.05 30.60Q175.05 28.85 173.95 27.72Q172.85 26.60 170.45 26.60L170.45 26.60Q168.10 26.60 166.95 27.67Q165.80 28.75 165.45 30.45L165.45 30.45L159.65 28.50Q160.25 26.60 161.57 25.02Q162.90 23.45 165.13 22.47Q167.35 21.50 170.55 21.50L170.55 21.50Q175.45 21.50 178.30 23.95Q181.15 26.40 181.15 31.05L181.15 31.05L181.15 40.30Q181.15 41.80 182.55 41.80L182.55 41.80L184.55 41.80L184.55 47L180.35 47Q178.50 47 177.30 46.10Q176.10 45.20 176.10 43.70L176.10 43.70L176.10 43.65L175.15 43.65Q174.95 44.25 174.25 45.23Q173.55 46.20 172.05 46.95Q170.55 47.70 167.95 47.70ZM169.05 42.60L169.05 42.60Q171.70 42.60 173.38 41.13Q175.05 39.65 175.05 37.20L175.05 37.20L175.05 36.70L168.70 36.70Q166.95 36.70 165.95 37.45Q164.95 38.20 164.95 39.55L164.95 39.55Q164.95 40.90 166 41.75Q167.05 42.60 169.05 42.60ZM194.20 47L187.90 47L187.90 22.20L194.10 22.20L194.10 25L195 25Q195.55 23.50 196.83 22.80Q198.10 22.10 199.80 22.10L199.80 22.10L202.80 22.10L202.80 27.70L199.70 27.70Q197.30 27.70 195.75 28.97Q194.20 30.25 194.20 32.90L194.20 32.90L194.20 47ZM213.55 47.70L213.55 47.70Q210.90 47.70 208.80 46.77Q206.70 45.85 205.48 44.08Q204.25 42.30 204.25 39.75L204.25 39.75Q204.25 37.20 205.48 35.48Q206.70 33.75 208.88 32.88Q211.05 32 213.85 32L213.85 32L220.65 32L220.65 30.60Q220.65 28.85 219.55 27.72Q218.45 26.60 216.05 26.60L216.05 26.60Q213.70 26.60 212.55 27.67Q211.40 28.75 211.05 30.45L211.05 30.45L205.25 28.50Q205.85 26.60 207.18 25.02Q208.50 23.45 210.73 22.47Q212.95 21.50 216.15 21.50L216.15 21.50Q221.05 21.50 223.90 23.95Q226.75 26.40 226.75 31.05L226.75 31.05L226.75 40.30Q226.75 41.80 228.15 41.80L228.15 41.80L230.15 41.80L230.15 47L225.95 47Q224.10 47 222.90 46.10Q221.70 45.20 221.70 43.70L221.70 43.70L221.70 43.65L220.75 43.65Q220.55 44.25 219.85 45.23Q219.15 46.20 217.65 46.95Q216.15 47.70 213.55 47.70ZM214.65 42.60L214.65 42.60Q217.30 42.60 218.98 41.13Q220.65 39.65 220.65 37.20L220.65 37.20L220.65 36.70L214.30 36.70Q212.55 36.70 211.55 37.45Q210.55 38.20 210.55 39.55L210.55 39.55Q210.55 40.90 211.60 41.75Q212.65 42.60 214.65 42.60Z" fill="#200052"/><path d="M81.70 72.15L81.70 72.15Q80.28 72.15 79.44 71.36Q78.61 70.56 78.61 69.05L78.61 69.05L78.61 67.25Q78.61 65.74 79.44 64.94Q80.28 64.15 81.70 64.15L81.70 64.15Q83.11 64.15 83.96 64.94Q84.80 65.74 84.80 67.25L84.80 67.25L84.80 69.05Q84.80 70.56 83.96 71.36Q83.11 72.15 81.70 72.15ZM81.70 71.09L81.70 71.09Q82.61 71.09 83.10 70.55Q83.60 70.02 83.60 69.10L83.60 69.10L83.60 67.20Q83.60 66.28 83.10 65.75Q82.61 65.21 81.70 65.21L81.70 65.21Q80.81 65.21 80.30 65.75Q79.79 66.28 79.79 67.20L79.79 67.20L79.79 69.10Q79.79 70.02 80.30 70.55Q80.81 71.09 81.70 71.09ZM89.15 72L87.97 72L87.97 64.30L91.02 64.30Q91.73 64.30 92.28 64.58Q92.84 64.86 93.15 65.37Q93.47 65.88 93.47 66.60L93.47 66.60L93.47 66.74Q93.47 67.46 93.14 67.97Q92.82 68.49 92.27 68.77Q91.72 69.04 91.02 69.04L91.02 69.04L89.15 69.04L89.15 72ZM89.15 65.38L89.15 67.96L90.90 67.96Q91.53 67.96 91.90 67.63Q92.28 67.30 92.28 66.73L92.28 66.73L92.28 66.62Q92.28 66.04 91.90 65.71Q91.53 65.38 90.90 65.38L90.90 65.38L89.15 65.38ZM99.36 72L98.17 72L98.17 65.38L95.81 65.38L95.81 64.30L101.73 64.30L101.73 65.38L99.36 65.38L99.36 72ZM105.75 72L104.57 72L104.57 64.30L105.75 64.30L105.75 72ZM112.01 72.15L112.01 72.15Q110.59 72.15 109.76 71.36Q108.92 70.56 108.92 69.05L108.92 69.05L108.92 67.25Q108.92 65.74 109.76 64.94Q110.59 64.15 112.01 64.15L112.01 64.15Q113.43 64.15 114.27 64.94Q115.11 65.74 115.11 67.25L115.11 67.25L115.11 69.05Q115.11 70.56 114.27 71.36Q113.43 72.15 112.01 72.15ZM112.01 71.09L112.01 71.09Q112.93 71.09 113.42 70.55Q113.92 70.02 113.92 69.10L113.92 69.10L113.92 67.20Q113.92 66.28 113.42 65.75Q112.93 65.21 112.01 65.21L112.01 65.21Q111.12 65.21 110.62 65.75Q110.11 66.28 110.11 67.20L110.11 67.20L110.11 69.10Q110.11 70.02 110.62 70.55Q111.12 71.09 112.01 71.09ZM119.46 72L118.28 72L118.28 64.30L120.57 64.30L122.66 71.21L122.84 71.21L122.84 64.30L124.01 64.30L124.01 72L121.73 72L119.64 65.08L119.46 65.08L119.46 72ZM130.00 72.15L130.00 72.15Q129.13 72.15 128.46 71.85Q127.79 71.54 127.41 70.94Q127.03 70.34 127.03 69.48L127.03 69.48L127.03 69.21L128.20 69.21L128.20 69.48Q128.20 70.30 128.69 70.70Q129.18 71.11 130.00 71.11L130.00 71.11Q130.82 71.11 131.24 70.76Q131.66 70.42 131.66 69.87L131.66 69.87Q131.66 69.50 131.46 69.27Q131.26 69.04 130.90 68.90Q130.54 68.77 130.03 68.64L130.03 68.64L129.62 68.55Q128.89 68.37 128.34 68.11Q127.80 67.85 127.50 67.42Q127.20 67.00 127.20 66.32L127.20 66.32Q127.20 65.64 127.54 65.16Q127.87 64.67 128.47 64.41Q129.06 64.15 129.87 64.15L129.87 64.15Q130.67 64.15 131.30 64.42Q131.93 64.70 132.30 65.23Q132.66 65.77 132.66 66.59L132.66 66.59L132.66 66.98L131.48 66.98L131.48 66.59Q131.48 66.09 131.28 65.78Q131.08 65.48 130.71 65.33Q130.35 65.19 129.87 65.19L129.87 65.19Q129.16 65.19 128.77 65.48Q128.38 65.77 128.38 66.29L128.38 66.29Q128.38 66.64 128.55 66.87Q128.72 67.09 129.05 67.24Q129.38 67.38 129.88 67.49L129.88 67.49L130.28 67.59Q131.03 67.75 131.60 68.01Q132.18 68.27 132.51 68.71Q132.84 69.15 132.84 69.84L132.84 69.84Q132.84 70.54 132.49 71.05Q132.14 71.57 131.50 71.86Q130.87 72.15 130.00 72.15ZM143.30 72.15L143.30 72.15Q141.88 72.15 141.04 71.36Q140.21 70.56 140.21 69.05L140.21 69.05L140.21 67.25Q140.21 65.74 141.04 64.94Q141.88 64.15 143.30 64.15L143.30 64.15Q144.72 64.15 145.56 64.94Q146.40 65.74 146.40 67.25L146.40 67.25L146.40 69.05Q146.40 70.56 145.56 71.36Q144.72 72.15 143.30 72.15ZM143.30 71.09L143.30 71.09Q144.21 71.09 144.70 70.55Q145.20 70.02 145.20 69.10L145.20 69.10L145.20 67.20Q145.20 66.28 144.70 65.75Q144.21 65.21 143.30 65.21L143.30 65.21Q142.41 65.21 141.90 65.75Q141.39 66.28 141.39 67.20L141.39 67.20L141.39 69.10Q141.39 70.02 141.90 70.55Q142.41 71.09 143.30 71.09ZM150.74 72L149.57 72L149.57 64.30L151.85 64.30L153.94 71.21L154.12 71.21L154.12 64.30L155.30 64.30L155.30 72L153.01 72L150.92 65.08L150.74 65.08L150.74 72ZM164.38 72L163.23 72L163.23 64.30L165.46 64.30L167.14 71.21L167.32 71.21L169.00 64.30L171.24 64.30L171.24 72L170.08 72L170.08 65.14L169.90 65.14L168.23 72L166.23 72L164.56 65.14L164.38 65.14L164.38 72ZM177.49 72.15L177.49 72.15Q176.08 72.15 175.24 71.36Q174.40 70.56 174.40 69.05L174.40 69.05L174.40 67.25Q174.40 65.74 175.24 64.94Q176.08 64.15 177.49 64.15L177.49 64.15Q178.91 64.15 179.76 64.94Q180.60 65.74 180.60 67.25L180.60 67.25L180.60 69.05Q180.60 70.56 179.76 71.36Q178.91 72.15 177.49 72.15ZM177.49 71.09L177.49 71.09Q178.41 71.09 178.90 70.55Q179.40 70.02 179.40 69.10L179.40 69.10L179.40 67.20Q179.40 66.28 178.90 65.75Q178.41 65.21 177.49 65.21L177.49 65.21Q176.60 65.21 176.10 65.75Q175.59 66.28 175.59 67.20L175.59 67.20L175.59 69.10Q175.59 70.02 176.10 70.55Q176.60 71.09 177.49 71.09ZM184.94 72L183.76 72L183.76 64.30L186.05 64.30L188.14 71.21L188.32 71.21L188.32 64.30L189.50 64.30L189.50 72L187.21 72L185.12 65.08L184.94 65.08L184.94 72ZM193.52 72L192.29 72L194.49 64.30L196.58 64.30L198.77 72L197.55 72L197.04 70.19L194.03 70.19L193.52 72ZM195.45 65.04L194.32 69.08L196.74 69.08L195.62 65.04L195.45 65.04ZM204.37 72L201.29 72L201.29 70.94L202.32 70.94L202.32 65.36L201.29 65.36L201.29 64.30L204.37 64.30Q205.91 64.30 206.73 65.08Q207.55 65.86 207.55 67.44L207.55 67.44L207.55 68.88Q207.55 70.45 206.73 71.22Q205.91 72 204.37 72L204.37 72ZM203.52 65.39L203.52 70.92L204.38 70.92Q205.38 70.92 205.86 70.42Q206.35 69.91 206.35 68.91L206.35 68.91L206.35 67.39Q206.35 66.38 205.86 65.88Q205.38 65.39 204.38 65.39L204.38 65.39L203.52 65.39Z" fill="#5a4f7d"/></svg>
